<svg xmlns="http://www.w3.org/2000/svg" viewBox="0 0 1440 720" role="img" aria-label="peacock garden, day mosaic"><defs><pattern id="tiles" width="18" height="18" patternUnits="userSpaceOnUse"><rect width="16" height="16" rx="1" fill="#e4c778" opacity=".2"/><path d="M0 18 18 0" stroke="#071713" opacity=".08"/></pattern><linearGradient id="sky" x2="0" y2="1"><stop stop-color="#e4c778"/><stop offset="1" stop-color="#56e1dc"/></linearGradient><radialGradient id="glow"><stop stop-color="#e4c778" stop-opacity=".95"/><stop offset="1" stop-color="#19b7b7" stop-opacity="0"/></radialGradient></defs><rect width="100%" height="100%" fill="url(#sky)"/><rect width="100%" height="100%" fill="url(#tiles)"/><g fill="none" stroke="#0b4e41" stroke-width="12"><path d="M100 720V210Q720 -100 1340 210V720"/><path d="M210 720V270Q720 20 1230 270V720"/><path d="M320 720V330Q720 130 1120 330V720"/></g><g stroke="#19b7b7" stroke-width="8" fill="#e4c778" opacity=".88"><path d="M0 720V480L720 280 1440 480V720Z"/><circle cx="720" cy="315" r="88" fill="#e4c778"/><path d="M650 315h140M720 245v140"/></g><g fill="url(#glow)"><circle cx="980" cy="510" r="220"/></g><g fill="#071713" stroke="#0b4e41" stroke-width="8" stroke-linejoin="round" stroke-linecap="round"><g transform="translate(980 510) scale(1)" class="animal"><ellipse cx="40" cy="35" rx="55" ry="34"/><path d="M22 14q-5-82 37-112 26-18 42 2-25 5-30 26-9 39 5 70"/><circle cx="78" cy="-88" r="5"/><path d="m94-101 42-13-31 28M-2 42Q-170 8-180-95-88-123 26 17M4 48Q-142 67-139-25-59-73 32 20M37 65q-3 54-25 92M68 62q17 50 7 96"/><circle cx="-119" cy="-55" r="21"/><circle cx="-102" cy="14" r="19"/><circle cx="-44" cy="-53" r="20"/><circle cx="-38" cy="22" r="18"/></g></g><text x="54" y="64" fill="#071713" font-family="Georgia,serif" font-size="28" letter-spacing="5">GREENWAYS</text><text x="54" y="102" fill="#087f72" font-family="monospace" font-size="16" letter-spacing="3">PEACOCK GARDEN · DAY</text></svg>