<svg xmlns="http://www.w3.org/2000/svg" viewBox="0 0 64 64"><style>:root{--g:#d8d1c3;--bg:#f4efe6;--a:#6f1825;--b:#a52a32;--c:#d84a38;--d:#f08a47;--e:#ffd08a}@media(prefers-color-scheme:dark){:root{--g:#171412;--bg:#241b1b;--a:#5c1722;--b:#922632;--c:#d1493d;--d:#ff8b4a;--e:#ffd69a}}.t{stroke:var(--g);stroke-width:2;stroke-linejoin:round}</style><rect width="64" height="64" rx="10" fill="var(--bg)"/><path class="t" fill="var(--a)" d="M32 4C21 18 13 27 16 42c2 11 9 17 16 18-5-7-5-14 0-22 3 7 7 10 7 16 7-5 11-12 9-22C46 21 38 13 32 4Z"/><path class="t" fill="var(--b)" d="M32 4v34c-5 8-5 15 0 22-10-2-16-10-16-21 0-13 8-23 16-35Z"/><path class="t" fill="var(--c)" d="M32 17c-7 10-11 17-10 26 1 7 5 12 10 17-5-7-5-14 0-22Z"/><path class="t" fill="var(--d)" d="M32 17v21c3 7 7 10 7 16 5-5 7-11 5-18-2-8-7-14-12-19Z"/><path class="t" fill="var(--e)" d="M32 38c-5 8-5 15 0 22 5-2 7-6 7-11 0-4-3-8-7-11Z"/></svg>
