<svg xmlns="http://www.w3.org/2000/svg" viewBox="0 0 64 64"><style>:root{--g:#d5d1c7;--bg:#f2efe8;--a:#182b4c;--b:#294873;--c:#426a9d;--d:#8399bd;--e:#d7b968;--p:#111b2d}@media(prefers-color-scheme:dark){:root{--g:#10151d;--bg:#151c29;--a:#1d3153;--b:#315581;--c:#527daf;--d:#91a8cc;--e:#e0c66f;--p:#070b12}}.t{stroke:var(--g);stroke-width:2;stroke-linejoin:round}</style><rect width="64" height="64" rx="10" fill="var(--bg)"/><path class="t" fill="var(--a)" d="M4 32C12 18 21 12 32 12l-7 12-10 8Z"/><path class="t" fill="var(--b)" d="M32 12c11 0 21 6 28 20H49L39 24Z"/><path class="t" fill="var(--c)" d="M4 32h11l10 8 7 12C20 52 11 45 4 32Z"/><path class="t" fill="var(--d)" d="M60 32H49l-10 8-7 12c12 0 21-7 28-20Z"/><path class="t" fill="var(--c)" d="M32 17 43 24l6 8-10 8-7 7-7-7-10-8 6-8Z"/><path class="t" fill="var(--e)" d="m32 21 8 5 3 6-5 7-6 4-6-4-5-7 3-6Z"/><path class="t" fill="var(--p)" d="m32 25 5 3 2 4-3 5-4 2-4-2-3-5 2-4Z"/></svg>
