<svg xmlns="http://www.w3.org/2000/svg" viewBox="0 0 480 480"><style>:root{--ground:#f7f3e9;--g00:#174e40;--g01:#16453d;--g02:#134234;--g03:#103229;--g04:#0c2a25;--g10:#38a77f;--g11:#2f9374;--g12:#2c8c65;--g13:#247b5d;--g14:#25785d;--g20:#6eb78e;--g21:#65b38b;--g22:#64b081;--g23:#5aaa81;--g24:#51a579;--g30:#31d2e4;--g31:#30c4e0;--g32:#1fcbe3;--g33:#1fc8d7;--g34:#20b2c8}@media(prefers-color-scheme:dark){:root{--ground:#0b1410;--g00:#1e664f;--g01:#1b5a47;--g02:#17493e;--g03:#123e30;--g04:#0f3327;--g10:#40bd89;--g11:#3aa876;--g12:#34aa77;--g13:#328f69;--g14:#2c9069;--g20:#7ac394;--g21:#76bd96;--g22:#6eba8e;--g23:#5cb17c;--g24:#4daf76;--g30:#95ebf7;--g31:#98edf5;--g32:#79ecf5;--g33:#70e1f1;--g34:#5fe2f1}}</style><defs><clipPath id="r0"><path d="M240 90C395 182.4 395 327.6 240 420C85 327.6 85 182.4 240 90Z"/></clipPath><clipPath id="r1"><path d="M240 135C349.1 202.2 349.1 307.8 240 375C130.9 307.8 130.9 202.2 240 135Z"/></clipPath><clipPath id="r2"><path d="M240 177.5C308.2 220.9 308.2 289.1 240 332.5C171.8 289.1 171.8 220.9 240 177.5Z"/></clipPath><clipPath id="r3"><path d="M240 217C272.2 238.3 272.2 271.7 240 293C207.8 271.7 207.8 238.3 240 217Z"/></clipPath></defs><rect x="8" y="8" width="464" height="464" rx="82" fill="var(--ground)"/><g clip-path="url(#r0)"><polygon points="210.8,46.6 221.9,18.1 233.0,13.2 246.0,18.8 244.6,60.1" fill="var(--g03)" stroke="var(--g03)" stroke-width="1.5" stroke-linejoin="round"/><polygon points="244.6,60.1 246.0,18.8 266.1,15.1 283.3,41.6 281.8,44.1 246.1,63.1" fill="var(--g02)" stroke="var(--g02)" stroke-width="1.5" stroke-linejoin="round"/><polygon points="393.5,50.9 398.3,15.7 400.4,13.9 407.0,14.4 427.6,26.8 428.9,63.7 398.5,63.4" fill="var(--g00)" stroke="var(--g00)" stroke-width="1.5" stroke-linejoin="round"/><polygon points="428.9,63.7 427.6,26.8 462.6,31.3 462.1,59.0 442.4,71.6" fill="var(--g01)" stroke="var(--g01)" stroke-width="1.5" stroke-linejoin="round"/><polygon points="14.0,55.7 23.9,43.2 66.8,50.3 68.2,51.9 55.6,77.4 42.0,85.8 26.9,80.7" fill="var(--g01)" stroke="var(--g01)" stroke-width="1.5" stroke-linejoin="round"/><polygon points="55.6,77.4 68.2,51.9 98.4,52.9 99.0,53.5 97.8,77.4 85.9,95.7" fill="var(--g01)" stroke="var(--g01)" stroke-width="1.5" stroke-linejoin="round"/><polygon points="97.8,77.4 99.0,53.5 122.5,55.5 146.4,87.9 142.0,97.1 136.1,103.8" fill="var(--g00)" stroke="var(--g00)" stroke-width="1.5" stroke-linejoin="round"/><polygon points="122.5,55.5 139.2,39.2 170.7,61.9 165.1,78.2 146.4,87.9" fill="var(--g02)" stroke="var(--g02)" stroke-width="1.5" stroke-linejoin="round"/><polygon points="165.1,78.2 170.7,61.9 182.6,49.7 201.4,53.1 211.9,80.9 198.8,100.3" fill="var(--g01)" stroke="var(--g01)" stroke-width="1.5" stroke-linejoin="round"/><polygon points="201.4,53.1 210.8,46.6 244.6,60.1 246.1,63.1 246.2,75.9 211.9,80.9" fill="var(--g04)" stroke="var(--g04)" stroke-width="1.5" stroke-linejoin="round"/><polygon points="246.2,75.9 246.1,63.1 281.8,44.1 281.3,86.7 251.7,82.9" fill="var(--g00)" stroke="var(--g00)" stroke-width="1.5" stroke-linejoin="round"/><polygon points="281.3,86.7 281.8,44.1 283.3,41.6 321.9,43.2 324.9,48.4 321.3,72.7 314.6,81.5 288.0,90.7" fill="var(--g03)" stroke="var(--g03)" stroke-width="1.5" stroke-linejoin="round"/><polygon points="321.3,72.7 324.9,48.4 349.0,48.8 360.1,55.4 367.3,94.1" fill="var(--g03)" stroke="var(--g03)" stroke-width="1.5" stroke-linejoin="round"/><polygon points="367.3,94.1 360.1,55.4 393.5,50.9 398.5,63.4 389.8,94.9 368.4,95.3" fill="var(--g02)" stroke="var(--g02)" stroke-width="1.5" stroke-linejoin="round"/><polygon points="389.8,94.9 398.5,63.4 428.9,63.7 442.4,71.6 437.4,102.5 396.4,101.6" fill="var(--g01)" stroke="var(--g01)" stroke-width="1.5" stroke-linejoin="round"/><polygon points="51.3,125.4 42.0,85.8 55.6,77.4 85.9,95.7 87.9,124.9" fill="var(--g03)" stroke="var(--g03)" stroke-width="1.5" stroke-linejoin="round"/><polygon points="87.9,124.9 85.9,95.7 97.8,77.4 136.1,103.8 126.1,127.6 91.8,127.7" fill="var(--g03)" stroke="var(--g03)" stroke-width="1.5" stroke-linejoin="round"/><polygon points="126.1,127.6 136.1,103.8 142.0,97.1 196.5,129.4 195.5,132.2 168.7,140.0 135.2,140.1" fill="var(--g04)" stroke="var(--g04)" stroke-width="1.5" stroke-linejoin="round"/><polygon points="142.0,97.1 146.4,87.9 165.1,78.2 198.8,100.3 202.3,120.7 196.5,129.4" fill="var(--g00)" stroke="var(--g00)" stroke-width="1.5" stroke-linejoin="round"/><polygon points="202.3,120.7 198.8,100.3 211.9,80.9 246.2,75.9 251.7,82.9 240.1,118.8" fill="var(--g01)" stroke="var(--g01)" stroke-width="1.5" stroke-linejoin="round"/><polygon points="240.1,118.8 251.7,82.9 281.3,86.7 288.0,90.7 286.2,123.5 284.7,126.0 252.3,131.6" fill="var(--g00)" stroke="var(--g00)" stroke-width="1.5" stroke-linejoin="round"/><polygon points="286.2,123.5 288.0,90.7 314.6,81.5 332.3,122.7" fill="var(--g01)" stroke="var(--g01)" stroke-width="1.5" stroke-linejoin="round"/><polygon points="314.6,81.5 321.3,72.7 367.3,94.1 368.4,95.3 343.8,127.7 342.3,128.8 339.3,128.2 332.3,122.7" fill="var(--g00)" stroke="var(--g00)" stroke-width="1.5" stroke-linejoin="round"/><polygon points="343.8,127.7 368.4,95.3 389.8,94.9 396.4,101.6 395.6,133.9 394.8,134.9" fill="var(--g00)" stroke="var(--g00)" stroke-width="1.5" stroke-linejoin="round"/><polygon points="395.6,133.9 396.4,101.6 437.4,102.5 439.5,105.0 442.3,125.8 424.1,141.5" fill="var(--g04)" stroke="var(--g04)" stroke-width="1.5" stroke-linejoin="round"/><polygon points="47.6,168.9 45.4,130.7 51.3,125.4 87.9,124.9 91.8,127.7 82.7,176.4" fill="var(--g01)" stroke="var(--g01)" stroke-width="1.5" stroke-linejoin="round"/><polygon points="82.7,176.4 91.8,127.7 126.1,127.6 135.2,140.1 134.7,171.9 129.4,179.5 86.0,181.4" fill="var(--g00)" stroke="var(--g00)" stroke-width="1.5" stroke-linejoin="round"/><polygon points="134.7,171.9 135.2,140.1 168.7,140.0 169.9,176.6 168.2,179.9" fill="var(--g01)" stroke="var(--g01)" stroke-width="1.5" stroke-linejoin="round"/><polygon points="169.9,176.6 168.7,140.0 195.5,132.2 200.9,148.6" fill="var(--g00)" stroke="var(--g00)" stroke-width="1.5" stroke-linejoin="round"/><polygon points="200.9,148.6 195.5,132.2 196.5,129.4 202.3,120.7 240.1,118.8 252.3,131.6 246.8,169.0 242.5,171.9 216.2,170.2" fill="var(--g00)" stroke="var(--g00)" stroke-width="1.5" stroke-linejoin="round"/><polygon points="246.8,169.0 252.3,131.6 284.7,126.0 293.9,151.2 269.4,172.6" fill="var(--g03)" stroke="var(--g03)" stroke-width="1.5" stroke-linejoin="round"/><polygon points="284.7,126.0 286.2,123.5 332.3,122.7 339.3,128.2 305.6,156.4 293.9,151.2" fill="var(--g03)" stroke="var(--g03)" stroke-width="1.5" stroke-linejoin="round"/><polygon points="305.6,156.4 339.3,128.2 342.3,128.8 350.9,152.3 318.6,182.1" fill="var(--g04)" stroke="var(--g04)" stroke-width="1.5" stroke-linejoin="round"/><polygon points="350.9,152.3 342.3,128.8 343.8,127.7 394.8,134.9 384.0,167.1 367.9,164.8" fill="var(--g02)" stroke="var(--g02)" stroke-width="1.5" stroke-linejoin="round"/><polygon points="384.0,167.1 394.8,134.9 395.6,133.9 424.1,141.5 425.6,159.4 387.0,170.8" fill="var(--g02)" stroke="var(--g02)" stroke-width="1.5" stroke-linejoin="round"/><polygon points="425.6,159.4 424.1,141.5 442.3,125.8 466.0,145.4 464.8,157.8 439.9,173.8" fill="var(--g01)" stroke="var(--g01)" stroke-width="1.5" stroke-linejoin="round"/><polygon points="41.0,199.0 37.3,177.8 47.6,168.9 82.7,176.4 86.0,181.4 81.7,204.3 52.3,205.4" fill="var(--g02)" stroke="var(--g02)" stroke-width="1.5" stroke-linejoin="round"/><polygon points="81.7,204.3 86.0,181.4 129.4,179.5 133.3,209.9 131.4,214.5 82.4,206.2" fill="var(--g00)" stroke="var(--g00)" stroke-width="1.5" stroke-linejoin="round"/><polygon points="133.3,209.9 129.4,179.5 134.7,171.9 168.2,179.9 177.7,193.4 165.7,207.0" fill="var(--g01)" stroke="var(--g01)" stroke-width="1.5" stroke-linejoin="round"/><polygon points="168.2,179.9 169.9,176.6 200.9,148.6 216.2,170.2 198.2,196.8 177.7,193.4" fill="var(--g01)" stroke="var(--g01)" stroke-width="1.5" stroke-linejoin="round"/><polygon points="198.2,196.8 216.2,170.2 242.5,171.9 244.2,192.7 228.4,218.9 207.2,221.1" fill="var(--g04)" stroke="var(--g04)" stroke-width="1.5" stroke-linejoin="round"/><polygon points="244.2,192.7 242.5,171.9 246.8,169.0 269.4,172.6 290.6,200.0 273.2,220.4" fill="var(--g02)" stroke="var(--g02)" stroke-width="1.5" stroke-linejoin="round"/><polygon points="269.4,172.6 293.9,151.2 305.6,156.4 318.6,182.1 317.9,196.5 290.6,200.0" fill="var(--g03)" stroke="var(--g03)" stroke-width="1.5" stroke-linejoin="round"/><polygon points="317.9,196.5 318.6,182.1 350.9,152.3 367.9,164.8 340.9,202.2 325.9,203.9" fill="var(--g01)" stroke="var(--g01)" stroke-width="1.5" stroke-linejoin="round"/><polygon points="340.9,202.2 367.9,164.8 384.0,167.1 387.0,170.8 396.9,202.1 345.1,203.8" fill="var(--g01)" stroke="var(--g01)" stroke-width="1.5" stroke-linejoin="round"/><polygon points="396.9,202.1 387.0,170.8 425.6,159.4 439.9,173.8 431.6,209.3 429.6,211.0 398.4,203.8" fill="var(--g00)" stroke="var(--g00)" stroke-width="1.5" stroke-linejoin="round"/><polygon points="20.7,238.5 15.6,225.7 41.0,199.0 52.3,205.4 49.9,235.0" fill="var(--g01)" stroke="var(--g01)" stroke-width="1.5" stroke-linejoin="round"/><polygon points="49.9,235.0 52.3,205.4 81.7,204.3 82.4,206.2 81.9,228.5 66.7,240.8" fill="var(--g00)" stroke="var(--g00)" stroke-width="1.5" stroke-linejoin="round"/><polygon points="81.9,228.5 82.4,206.2 131.4,214.5 131.0,238.7 111.4,245.2" fill="var(--g00)" stroke="var(--g00)" stroke-width="1.5" stroke-linejoin="round"/><polygon points="131.0,238.7 131.4,214.5 133.3,209.9 165.7,207.0 172.7,236.0 164.2,246.5 140.2,245.7" fill="var(--g02)" stroke="var(--g02)" stroke-width="1.5" stroke-linejoin="round"/><polygon points="172.7,236.0 165.7,207.0 177.7,193.4 198.2,196.8 207.2,221.1 205.9,224.0" fill="var(--g00)" stroke="var(--g00)" stroke-width="1.5" stroke-linejoin="round"/><polygon points="205.9,224.0 207.2,221.1 228.4,218.9 262.0,242.5 261.5,244.0 252.8,252.8 212.7,256.7" fill="var(--g01)" stroke="var(--g01)" stroke-width="1.5" stroke-linejoin="round"/><polygon points="228.4,218.9 244.2,192.7 273.2,220.4 269.6,235.5 262.0,242.5" fill="var(--g04)" stroke="var(--g04)" stroke-width="1.5" stroke-linejoin="round"/><polygon points="269.6,235.5 273.2,220.4 290.6,200.0 317.9,196.5 325.9,203.9 325.1,226.5 311.9,246.7" fill="var(--g00)" stroke="var(--g00)" stroke-width="1.5" stroke-linejoin="round"/><polygon points="325.1,226.5 325.9,203.9 340.9,202.2 345.1,203.8 373.3,242.6 362.9,250.2" fill="var(--g02)" stroke="var(--g02)" stroke-width="1.5" stroke-linejoin="round"/><polygon points="345.1,203.8 396.9,202.1 398.4,203.8 374.2,242.3 373.3,242.6" fill="var(--g04)" stroke="var(--g04)" stroke-width="1.5" stroke-linejoin="round"/><polygon points="374.2,242.3 398.4,203.8 429.6,211.0 431.5,225.6 389.7,252.6" fill="var(--g04)" stroke="var(--g04)" stroke-width="1.5" stroke-linejoin="round"/><polygon points="25.6,271.0 19.0,245.3 20.7,238.5 49.9,235.0 66.7,240.8 67.1,265.1 53.1,273.8" fill="var(--g02)" stroke="var(--g02)" stroke-width="1.5" stroke-linejoin="round"/><polygon points="67.1,265.1 66.7,240.8 81.9,228.5 111.4,245.2 97.3,274.7 90.6,276.8" fill="var(--g02)" stroke="var(--g02)" stroke-width="1.5" stroke-linejoin="round"/><polygon points="97.3,274.7 111.4,245.2 131.0,238.7 140.2,245.7 137.8,282.7 124.8,293.3" fill="var(--g04)" stroke="var(--g04)" stroke-width="1.5" stroke-linejoin="round"/><polygon points="137.8,282.7 140.2,245.7 164.2,246.5 181.1,270.7 158.8,288.5" fill="var(--g04)" stroke="var(--g04)" stroke-width="1.5" stroke-linejoin="round"/><polygon points="164.2,246.5 172.7,236.0 205.9,224.0 212.7,256.7 209.2,263.1 193.8,274.9 181.1,270.7" fill="var(--g02)" stroke="var(--g02)" stroke-width="1.5" stroke-linejoin="round"/><polygon points="209.2,263.1 212.7,256.7 252.8,252.8 249.0,276.4 236.2,286.9" fill="var(--g02)" stroke="var(--g02)" stroke-width="1.5" stroke-linejoin="round"/><polygon points="249.0,276.4 252.8,252.8 261.5,244.0 284.3,275.8 270.2,294.8" fill="var(--g01)" stroke="var(--g01)" stroke-width="1.5" stroke-linejoin="round"/><polygon points="261.5,244.0 262.0,242.5 269.6,235.5 311.9,246.7 318.3,277.3 284.3,275.8" fill="var(--g02)" stroke="var(--g02)" stroke-width="1.5" stroke-linejoin="round"/><polygon points="318.3,277.3 311.9,246.7 325.1,226.5 362.9,250.2 352.5,275.0 322.6,282.0" fill="var(--g01)" stroke="var(--g01)" stroke-width="1.5" stroke-linejoin="round"/><polygon points="352.5,275.0 362.9,250.2 373.3,242.6 374.2,242.3 389.7,252.6 409.4,276.3 397.8,288.2 357.5,279.4" fill="var(--g00)" stroke="var(--g00)" stroke-width="1.5" stroke-linejoin="round"/><polygon points="389.7,252.6 431.5,225.6 435.0,237.4 412.0,275.8 409.4,276.3" fill="var(--g04)" stroke="var(--g04)" stroke-width="1.5" stroke-linejoin="round"/><polygon points="412.0,275.8 435.0,237.4 459.5,254.3 465.7,282.2 439.4,291.7" fill="var(--g02)" stroke="var(--g02)" stroke-width="1.5" stroke-linejoin="round"/><polygon points="17.9,310.3 20.6,279.6 25.6,271.0 53.1,273.8 61.4,319.3 60.6,319.9 24.2,320.9" fill="var(--g01)" stroke="var(--g01)" stroke-width="1.5" stroke-linejoin="round"/><polygon points="61.4,319.3 53.1,273.8 67.1,265.1 90.6,276.8 77.7,315.1" fill="var(--g04)" stroke="var(--g04)" stroke-width="1.5" stroke-linejoin="round"/><polygon points="77.7,315.1 90.6,276.8 97.3,274.7 124.8,293.3 123.4,317.0 102.6,325.4" fill="var(--g01)" stroke="var(--g01)" stroke-width="1.5" stroke-linejoin="round"/><polygon points="123.4,317.0 124.8,293.3 137.8,282.7 158.8,288.5 165.3,315.4 134.0,323.6" fill="var(--g01)" stroke="var(--g01)" stroke-width="1.5" stroke-linejoin="round"/><polygon points="165.3,315.4 158.8,288.5 181.1,270.7 193.8,274.9 202.7,315.3 184.8,323.9" fill="var(--g01)" stroke="var(--g01)" stroke-width="1.5" stroke-linejoin="round"/><polygon points="202.7,315.3 193.8,274.9 209.2,263.1 236.2,286.9 227.9,316.6 212.6,318.2" fill="var(--g00)" stroke="var(--g00)" stroke-width="1.5" stroke-linejoin="round"/><polygon points="227.9,316.6 236.2,286.9 249.0,276.4 270.2,294.8 270.6,309.2 246.7,325.0" fill="var(--g02)" stroke="var(--g02)" stroke-width="1.5" stroke-linejoin="round"/><polygon points="270.6,309.2 270.2,294.8 284.3,275.8 318.3,277.3 322.6,282.0 316.1,315.0 304.8,319.3" fill="var(--g02)" stroke="var(--g02)" stroke-width="1.5" stroke-linejoin="round"/><polygon points="316.1,315.0 322.6,282.0 352.5,275.0 357.5,279.4 364.9,314.3 343.9,329.0 320.1,318.5" fill="var(--g00)" stroke="var(--g00)" stroke-width="1.5" stroke-linejoin="round"/><polygon points="364.9,314.3 357.5,279.4 397.8,288.2 394.5,320.1" fill="var(--g00)" stroke="var(--g00)" stroke-width="1.5" stroke-linejoin="round"/><polygon points="394.5,320.1 397.8,288.2 409.4,276.3 412.0,275.8 439.4,291.7 434.7,316.6 433.1,318.2 398.8,327.8" fill="var(--g02)" stroke="var(--g02)" stroke-width="1.5" stroke-linejoin="round"/><polygon points="13.5,345.1 24.2,320.9 60.6,319.9 64.8,352.2 58.5,369.7 30.4,366.7" fill="var(--g04)" stroke="var(--g04)" stroke-width="1.5" stroke-linejoin="round"/><polygon points="64.8,352.2 60.6,319.9 61.4,319.3 77.7,315.1 102.6,325.4 101.0,352.8" fill="var(--g00)" stroke="var(--g00)" stroke-width="1.5" stroke-linejoin="round"/><polygon points="101.0,352.8 102.6,325.4 123.4,317.0 134.0,323.6 143.5,360.9 127.2,370.1 101.2,353.3" fill="var(--g01)" stroke="var(--g01)" stroke-width="1.5" stroke-linejoin="round"/><polygon points="143.5,360.9 134.0,323.6 165.3,315.4 184.8,323.9 174.8,355.5 162.5,365.2" fill="var(--g03)" stroke="var(--g03)" stroke-width="1.5" stroke-linejoin="round"/><polygon points="174.8,355.5 184.8,323.9 202.7,315.3 212.6,318.2 214.1,363.4 202.8,366.9" fill="var(--g03)" stroke="var(--g03)" stroke-width="1.5" stroke-linejoin="round"/><polygon points="214.1,363.4 212.6,318.2 227.9,316.6 246.7,325.0 250.6,337.2 236.4,374.2" fill="var(--g02)" stroke="var(--g02)" stroke-width="1.5" stroke-linejoin="round"/><polygon points="250.6,337.2 246.7,325.0 270.6,309.2 304.8,319.3 286.5,356.4 284.9,356.7" fill="var(--g03)" stroke="var(--g03)" stroke-width="1.5" stroke-linejoin="round"/><polygon points="286.5,356.4 304.8,319.3 316.1,315.0 320.1,318.5 320.4,361.6 311.4,375.1" fill="var(--g04)" stroke="var(--g04)" stroke-width="1.5" stroke-linejoin="round"/><polygon points="320.4,361.6 320.1,318.5 343.9,329.0 353.8,350.9" fill="var(--g00)" stroke="var(--g00)" stroke-width="1.5" stroke-linejoin="round"/><polygon points="353.8,350.9 343.9,329.0 364.9,314.3 394.5,320.1 398.8,327.8 396.7,347.7 362.6,359.5" fill="var(--g02)" stroke="var(--g02)" stroke-width="1.5" stroke-linejoin="round"/><polygon points="396.7,347.7 398.8,327.8 433.1,318.2 441.2,350.9 399.5,350.9" fill="var(--g04)" stroke="var(--g04)" stroke-width="1.5" stroke-linejoin="round"/><polygon points="21.4,391.8 30.4,366.7 58.5,369.7 66.3,382.1 56.9,402.5" fill="var(--g00)" stroke="var(--g00)" stroke-width="1.5" stroke-linejoin="round"/><polygon points="58.5,369.7 64.8,352.2 101.0,352.8 101.2,353.3 82.2,383.6 66.3,382.1" fill="var(--g03)" stroke="var(--g03)" stroke-width="1.5" stroke-linejoin="round"/><polygon points="82.2,383.6 101.2,353.3 127.2,370.1 117.7,396.8 104.5,400.0" fill="var(--g01)" stroke="var(--g01)" stroke-width="1.5" stroke-linejoin="round"/><polygon points="117.7,396.8 127.2,370.1 143.5,360.9 162.5,365.2 166.3,380.3 153.9,403.8 133.5,410.2" fill="var(--g03)" stroke="var(--g03)" stroke-width="1.5" stroke-linejoin="round"/><polygon points="166.3,380.3 162.5,365.2 174.8,355.5 202.8,366.9 195.5,401.0" fill="var(--g03)" stroke="var(--g03)" stroke-width="1.5" stroke-linejoin="round"/><polygon points="195.5,401.0 202.8,366.9 214.1,363.4 236.4,374.2 241.3,386.4 234.8,397.3 200.7,410.8" fill="var(--g00)" stroke="var(--g00)" stroke-width="1.5" stroke-linejoin="round"/><polygon points="241.3,386.4 236.4,374.2 250.6,337.2 284.9,356.7 262.6,386.8" fill="var(--g02)" stroke="var(--g02)" stroke-width="1.5" stroke-linejoin="round"/><polygon points="262.6,386.8 284.9,356.7 286.5,356.4 311.4,375.1 315.7,388.4 315.3,388.9 281.5,404.1" fill="var(--g04)" stroke="var(--g04)" stroke-width="1.5" stroke-linejoin="round"/><polygon points="315.7,388.4 311.4,375.1 320.4,361.6 353.8,350.9 362.6,359.5 355.9,388.2 347.4,393.0" fill="var(--g03)" stroke="var(--g03)" stroke-width="1.5" stroke-linejoin="round"/><polygon points="355.9,388.2 362.6,359.5 396.7,347.7 399.5,350.9 412.5,390.8 392.8,406.4" fill="var(--g01)" stroke="var(--g01)" stroke-width="1.5" stroke-linejoin="round"/><polygon points="412.5,390.8 399.5,350.9 441.2,350.9 447.9,355.4 446.5,381.5 418.4,391.6" fill="var(--g02)" stroke="var(--g02)" stroke-width="1.5" stroke-linejoin="round"/><polygon points="57.1,417.4 56.9,402.5 66.3,382.1 82.2,383.6 104.5,400.0 92.3,422.3 80.8,428.9" fill="var(--g01)" stroke="var(--g01)" stroke-width="1.5" stroke-linejoin="round"/><polygon points="92.3,422.3 104.5,400.0 117.7,396.8 133.5,410.2 134.8,426.0 125.2,447.6" fill="var(--g01)" stroke="var(--g01)" stroke-width="1.5" stroke-linejoin="round"/><polygon points="134.8,426.0 133.5,410.2 153.9,403.8 181.7,428.9 174.8,437.0" fill="var(--g02)" stroke="var(--g02)" stroke-width="1.5" stroke-linejoin="round"/><polygon points="153.9,403.8 166.3,380.3 195.5,401.0 200.7,410.8 196.2,422.5 181.7,428.9" fill="var(--g02)" stroke="var(--g02)" stroke-width="1.5" stroke-linejoin="round"/><polygon points="196.2,422.5 200.7,410.8 234.8,397.3 248.8,430.3 235.4,452.2 212.5,441.6" fill="var(--g01)" stroke="var(--g01)" stroke-width="1.5" stroke-linejoin="round"/><polygon points="248.8,430.3 234.8,397.3 241.3,386.4 262.6,386.8 281.5,404.1 279.5,427.1" fill="var(--g00)" stroke="var(--g00)" stroke-width="1.5" stroke-linejoin="round"/><polygon points="279.5,427.1 281.5,404.1 315.3,388.9 314.5,435.8 291.8,442.2" fill="var(--g00)" stroke="var(--g00)" stroke-width="1.5" stroke-linejoin="round"/><polygon points="314.5,435.8 315.3,388.9 315.7,388.4 347.4,393.0 345.5,431.8 338.3,439.5 333.4,441.5" fill="var(--g00)" stroke="var(--g00)" stroke-width="1.5" stroke-linejoin="round"/><polygon points="345.5,431.8 347.4,393.0 355.9,388.2 392.8,406.4 390.8,434.0" fill="var(--g04)" stroke="var(--g04)" stroke-width="1.5" stroke-linejoin="round"/><polygon points="396.5,446.1 390.8,434.0 392.8,406.4 412.5,390.8 418.4,391.6 440.8,431.4 427.8,438.8" fill="var(--g02)" stroke="var(--g02)" stroke-width="1.5" stroke-linejoin="round"/><polygon points="23.3,469.2 17.4,438.4 23.6,432.7 39.4,429.9 64.0,464.0 49.3,471.7" fill="var(--g03)" stroke="var(--g03)" stroke-width="1.5" stroke-linejoin="round"/><polygon points="39.4,429.9 57.1,417.4 80.8,428.9 80.0,463.9 64.0,464.0" fill="var(--g04)" stroke="var(--g04)" stroke-width="1.5" stroke-linejoin="round"/><polygon points="80.0,463.9 80.8,428.9 92.3,422.3 125.2,447.6 125.9,463.4 89.6,472.6" fill="var(--g03)" stroke="var(--g03)" stroke-width="1.5" stroke-linejoin="round"/><polygon points="125.9,463.4 125.2,447.6 134.8,426.0 174.8,437.0 167.1,462.0 127.0,464.1" fill="var(--g01)" stroke="var(--g01)" stroke-width="1.5" stroke-linejoin="round"/><polygon points="167.1,462.0 174.8,437.0 181.7,428.9 196.2,422.5 212.5,441.6 190.0,477.8 176.5,474.4" fill="var(--g02)" stroke="var(--g02)" stroke-width="1.5" stroke-linejoin="round"/><polygon points="190.0,477.8 212.5,441.6 235.4,452.2 236.3,454.8 203.4,487.8" fill="var(--g01)" stroke="var(--g01)" stroke-width="1.5" stroke-linejoin="round"/><polygon points="236.3,454.8 235.4,452.2 248.8,430.3 279.5,427.1 291.8,442.2 288.1,456.5 246.9,465.7" fill="var(--g04)" stroke="var(--g04)" stroke-width="1.5" stroke-linejoin="round"/><polygon points="288.1,456.5 291.8,442.2 314.5,435.8 333.4,441.5 330.2,468.6 324.1,477.0 288.6,458.0" fill="var(--g00)" stroke="var(--g00)" stroke-width="1.5" stroke-linejoin="round"/><polygon points="330.2,468.6 333.4,441.5 338.3,439.5 374.7,475.0 367.0,478.3" fill="var(--g00)" stroke="var(--g00)" stroke-width="1.5" stroke-linejoin="round"/><polygon points="338.3,439.5 345.5,431.8 390.8,434.0 396.5,446.1 393.8,463.2 387.9,474.8 374.7,475.0" fill="var(--g03)" stroke="var(--g03)" stroke-width="1.5" stroke-linejoin="round"/><polygon points="393.8,463.2 396.5,446.1 427.8,438.8 437.1,470.8" fill="var(--g04)" stroke="var(--g04)" stroke-width="1.5" stroke-linejoin="round"/><polygon points="437.1,470.8 427.8,438.8 440.8,431.4 467.2,434.3 467.1,449.6 445.2,475.6" fill="var(--g00)" stroke="var(--g00)" stroke-width="1.5" stroke-linejoin="round"/></g><g clip-path="url(#r1)"><polygon points="87.9,124.9 85.9,95.7 97.8,77.4 136.1,103.8 126.1,127.6 91.8,127.7" fill="var(--g13)" stroke="var(--g13)" stroke-width="1.5" stroke-linejoin="round"/><polygon points="126.1,127.6 136.1,103.8 142.0,97.1 196.5,129.4 195.5,132.2 168.7,140.0 135.2,140.1" fill="var(--g14)" stroke="var(--g14)" stroke-width="1.5" stroke-linejoin="round"/><polygon points="142.0,97.1 146.4,87.9 165.1,78.2 198.8,100.3 202.3,120.7 196.5,129.4" fill="var(--g10)" stroke="var(--g10)" stroke-width="1.5" stroke-linejoin="round"/><polygon points="202.3,120.7 198.8,100.3 211.9,80.9 246.2,75.9 251.7,82.9 240.1,118.8" fill="var(--g11)" stroke="var(--g11)" stroke-width="1.5" stroke-linejoin="round"/><polygon points="240.1,118.8 251.7,82.9 281.3,86.7 288.0,90.7 286.2,123.5 284.7,126.0 252.3,131.6" fill="var(--g10)" stroke="var(--g10)" stroke-width="1.5" stroke-linejoin="round"/><polygon points="286.2,123.5 288.0,90.7 314.6,81.5 332.3,122.7" fill="var(--g11)" stroke="var(--g11)" stroke-width="1.5" stroke-linejoin="round"/><polygon points="314.6,81.5 321.3,72.7 367.3,94.1 368.4,95.3 343.8,127.7 342.3,128.8 339.3,128.2 332.3,122.7" fill="var(--g10)" stroke="var(--g10)" stroke-width="1.5" stroke-linejoin="round"/><polygon points="343.8,127.7 368.4,95.3 389.8,94.9 396.4,101.6 395.6,133.9 394.8,134.9" fill="var(--g10)" stroke="var(--g10)" stroke-width="1.5" stroke-linejoin="round"/><polygon points="82.7,176.4 91.8,127.7 126.1,127.6 135.2,140.1 134.7,171.9 129.4,179.5 86.0,181.4" fill="var(--g10)" stroke="var(--g10)" stroke-width="1.5" stroke-linejoin="round"/><polygon points="134.7,171.9 135.2,140.1 168.7,140.0 169.9,176.6 168.2,179.9" fill="var(--g11)" stroke="var(--g11)" stroke-width="1.5" stroke-linejoin="round"/><polygon points="169.9,176.6 168.7,140.0 195.5,132.2 200.9,148.6" fill="var(--g10)" stroke="var(--g10)" stroke-width="1.5" stroke-linejoin="round"/><polygon points="200.9,148.6 195.5,132.2 196.5,129.4 202.3,120.7 240.1,118.8 252.3,131.6 246.8,169.0 242.5,171.9 216.2,170.2" fill="var(--g10)" stroke="var(--g10)" stroke-width="1.5" stroke-linejoin="round"/><polygon points="246.8,169.0 252.3,131.6 284.7,126.0 293.9,151.2 269.4,172.6" fill="var(--g13)" stroke="var(--g13)" stroke-width="1.5" stroke-linejoin="round"/><polygon points="284.7,126.0 286.2,123.5 332.3,122.7 339.3,128.2 305.6,156.4 293.9,151.2" fill="var(--g13)" stroke="var(--g13)" stroke-width="1.5" stroke-linejoin="round"/><polygon points="305.6,156.4 339.3,128.2 342.3,128.8 350.9,152.3 318.6,182.1" fill="var(--g14)" stroke="var(--g14)" stroke-width="1.5" stroke-linejoin="round"/><polygon points="350.9,152.3 342.3,128.8 343.8,127.7 394.8,134.9 384.0,167.1 367.9,164.8" fill="var(--g12)" stroke="var(--g12)" stroke-width="1.5" stroke-linejoin="round"/><polygon points="81.7,204.3 86.0,181.4 129.4,179.5 133.3,209.9 131.4,214.5 82.4,206.2" fill="var(--g10)" stroke="var(--g10)" stroke-width="1.5" stroke-linejoin="round"/><polygon points="133.3,209.9 129.4,179.5 134.7,171.9 168.2,179.9 177.7,193.4 165.7,207.0" fill="var(--g11)" stroke="var(--g11)" stroke-width="1.5" stroke-linejoin="round"/><polygon points="168.2,179.9 169.9,176.6 200.9,148.6 216.2,170.2 198.2,196.8 177.7,193.4" fill="var(--g11)" stroke="var(--g11)" stroke-width="1.5" stroke-linejoin="round"/><polygon points="198.2,196.8 216.2,170.2 242.5,171.9 244.2,192.7 228.4,218.9 207.2,221.1" fill="var(--g14)" stroke="var(--g14)" stroke-width="1.5" stroke-linejoin="round"/><polygon points="244.2,192.7 242.5,171.9 246.8,169.0 269.4,172.6 290.6,200.0 273.2,220.4" fill="var(--g12)" stroke="var(--g12)" stroke-width="1.5" stroke-linejoin="round"/><polygon points="269.4,172.6 293.9,151.2 305.6,156.4 318.6,182.1 317.9,196.5 290.6,200.0" fill="var(--g13)" stroke="var(--g13)" stroke-width="1.5" stroke-linejoin="round"/><polygon points="317.9,196.5 318.6,182.1 350.9,152.3 367.9,164.8 340.9,202.2 325.9,203.9" fill="var(--g11)" stroke="var(--g11)" stroke-width="1.5" stroke-linejoin="round"/><polygon points="340.9,202.2 367.9,164.8 384.0,167.1 387.0,170.8 396.9,202.1 345.1,203.8" fill="var(--g11)" stroke="var(--g11)" stroke-width="1.5" stroke-linejoin="round"/><polygon points="81.9,228.5 82.4,206.2 131.4,214.5 131.0,238.7 111.4,245.2" fill="var(--g10)" stroke="var(--g10)" stroke-width="1.5" stroke-linejoin="round"/><polygon points="131.0,238.7 131.4,214.5 133.3,209.9 165.7,207.0 172.7,236.0 164.2,246.5 140.2,245.7" fill="var(--g12)" stroke="var(--g12)" stroke-width="1.5" stroke-linejoin="round"/><polygon points="172.7,236.0 165.7,207.0 177.7,193.4 198.2,196.8 207.2,221.1 205.9,224.0" fill="var(--g10)" stroke="var(--g10)" stroke-width="1.5" stroke-linejoin="round"/><polygon points="205.9,224.0 207.2,221.1 228.4,218.9 262.0,242.5 261.5,244.0 252.8,252.8 212.7,256.7" fill="var(--g11)" stroke="var(--g11)" stroke-width="1.5" stroke-linejoin="round"/><polygon points="228.4,218.9 244.2,192.7 273.2,220.4 269.6,235.5 262.0,242.5" fill="var(--g14)" stroke="var(--g14)" stroke-width="1.5" stroke-linejoin="round"/><polygon points="269.6,235.5 273.2,220.4 290.6,200.0 317.9,196.5 325.9,203.9 325.1,226.5 311.9,246.7" fill="var(--g10)" stroke="var(--g10)" stroke-width="1.5" stroke-linejoin="round"/><polygon points="325.1,226.5 325.9,203.9 340.9,202.2 345.1,203.8 373.3,242.6 362.9,250.2" fill="var(--g12)" stroke="var(--g12)" stroke-width="1.5" stroke-linejoin="round"/><polygon points="345.1,203.8 396.9,202.1 398.4,203.8 374.2,242.3 373.3,242.6" fill="var(--g14)" stroke="var(--g14)" stroke-width="1.5" stroke-linejoin="round"/><polygon points="67.1,265.1 66.7,240.8 81.9,228.5 111.4,245.2 97.3,274.7 90.6,276.8" fill="var(--g12)" stroke="var(--g12)" stroke-width="1.5" stroke-linejoin="round"/><polygon points="97.3,274.7 111.4,245.2 131.0,238.7 140.2,245.7 137.8,282.7 124.8,293.3" fill="var(--g14)" stroke="var(--g14)" stroke-width="1.5" stroke-linejoin="round"/><polygon points="137.8,282.7 140.2,245.7 164.2,246.5 181.1,270.7 158.8,288.5" fill="var(--g14)" stroke="var(--g14)" stroke-width="1.5" stroke-linejoin="round"/><polygon points="164.2,246.5 172.7,236.0 205.9,224.0 212.7,256.7 209.2,263.1 193.8,274.9 181.1,270.7" fill="var(--g12)" stroke="var(--g12)" stroke-width="1.5" stroke-linejoin="round"/><polygon points="209.2,263.1 212.7,256.7 252.8,252.8 249.0,276.4 236.2,286.9" fill="var(--g12)" stroke="var(--g12)" stroke-width="1.5" stroke-linejoin="round"/><polygon points="249.0,276.4 252.8,252.8 261.5,244.0 284.3,275.8 270.2,294.8" fill="var(--g11)" stroke="var(--g11)" stroke-width="1.5" stroke-linejoin="round"/><polygon points="261.5,244.0 262.0,242.5 269.6,235.5 311.9,246.7 318.3,277.3 284.3,275.8" fill="var(--g12)" stroke="var(--g12)" stroke-width="1.5" stroke-linejoin="round"/><polygon points="318.3,277.3 311.9,246.7 325.1,226.5 362.9,250.2 352.5,275.0 322.6,282.0" fill="var(--g11)" stroke="var(--g11)" stroke-width="1.5" stroke-linejoin="round"/><polygon points="352.5,275.0 362.9,250.2 373.3,242.6 374.2,242.3 389.7,252.6 409.4,276.3 397.8,288.2 357.5,279.4" fill="var(--g10)" stroke="var(--g10)" stroke-width="1.5" stroke-linejoin="round"/><polygon points="77.7,315.1 90.6,276.8 97.3,274.7 124.8,293.3 123.4,317.0 102.6,325.4" fill="var(--g11)" stroke="var(--g11)" stroke-width="1.5" stroke-linejoin="round"/><polygon points="123.4,317.0 124.8,293.3 137.8,282.7 158.8,288.5 165.3,315.4 134.0,323.6" fill="var(--g11)" stroke="var(--g11)" stroke-width="1.5" stroke-linejoin="round"/><polygon points="165.3,315.4 158.8,288.5 181.1,270.7 193.8,274.9 202.7,315.3 184.8,323.9" fill="var(--g11)" stroke="var(--g11)" stroke-width="1.5" stroke-linejoin="round"/><polygon points="202.7,315.3 193.8,274.9 209.2,263.1 236.2,286.9 227.9,316.6 212.6,318.2" fill="var(--g10)" stroke="var(--g10)" stroke-width="1.5" stroke-linejoin="round"/><polygon points="227.9,316.6 236.2,286.9 249.0,276.4 270.2,294.8 270.6,309.2 246.7,325.0" fill="var(--g12)" stroke="var(--g12)" stroke-width="1.5" stroke-linejoin="round"/><polygon points="270.6,309.2 270.2,294.8 284.3,275.8 318.3,277.3 322.6,282.0 316.1,315.0 304.8,319.3" fill="var(--g12)" stroke="var(--g12)" stroke-width="1.5" stroke-linejoin="round"/><polygon points="316.1,315.0 322.6,282.0 352.5,275.0 357.5,279.4 364.9,314.3 343.9,329.0 320.1,318.5" fill="var(--g10)" stroke="var(--g10)" stroke-width="1.5" stroke-linejoin="round"/><polygon points="364.9,314.3 357.5,279.4 397.8,288.2 394.5,320.1" fill="var(--g10)" stroke="var(--g10)" stroke-width="1.5" stroke-linejoin="round"/><polygon points="64.8,352.2 60.6,319.9 61.4,319.3 77.7,315.1 102.6,325.4 101.0,352.8" fill="var(--g10)" stroke="var(--g10)" stroke-width="1.5" stroke-linejoin="round"/><polygon points="101.0,352.8 102.6,325.4 123.4,317.0 134.0,323.6 143.5,360.9 127.2,370.1 101.2,353.3" fill="var(--g11)" stroke="var(--g11)" stroke-width="1.5" stroke-linejoin="round"/><polygon points="143.5,360.9 134.0,323.6 165.3,315.4 184.8,323.9 174.8,355.5 162.5,365.2" fill="var(--g13)" stroke="var(--g13)" stroke-width="1.5" stroke-linejoin="round"/><polygon points="174.8,355.5 184.8,323.9 202.7,315.3 212.6,318.2 214.1,363.4 202.8,366.9" fill="var(--g13)" stroke="var(--g13)" stroke-width="1.5" stroke-linejoin="round"/><polygon points="214.1,363.4 212.6,318.2 227.9,316.6 246.7,325.0 250.6,337.2 236.4,374.2" fill="var(--g12)" stroke="var(--g12)" stroke-width="1.5" stroke-linejoin="round"/><polygon points="250.6,337.2 246.7,325.0 270.6,309.2 304.8,319.3 286.5,356.4 284.9,356.7" fill="var(--g13)" stroke="var(--g13)" stroke-width="1.5" stroke-linejoin="round"/><polygon points="286.5,356.4 304.8,319.3 316.1,315.0 320.1,318.5 320.4,361.6 311.4,375.1" fill="var(--g14)" stroke="var(--g14)" stroke-width="1.5" stroke-linejoin="round"/><polygon points="320.4,361.6 320.1,318.5 343.9,329.0 353.8,350.9" fill="var(--g10)" stroke="var(--g10)" stroke-width="1.5" stroke-linejoin="round"/><polygon points="353.8,350.9 343.9,329.0 364.9,314.3 394.5,320.1 398.8,327.8 396.7,347.7 362.6,359.5" fill="var(--g12)" stroke="var(--g12)" stroke-width="1.5" stroke-linejoin="round"/><polygon points="82.2,383.6 101.2,353.3 127.2,370.1 117.7,396.8 104.5,400.0" fill="var(--g11)" stroke="var(--g11)" stroke-width="1.5" stroke-linejoin="round"/><polygon points="117.7,396.8 127.2,370.1 143.5,360.9 162.5,365.2 166.3,380.3 153.9,403.8 133.5,410.2" fill="var(--g13)" stroke="var(--g13)" stroke-width="1.5" stroke-linejoin="round"/><polygon points="166.3,380.3 162.5,365.2 174.8,355.5 202.8,366.9 195.5,401.0" fill="var(--g13)" stroke="var(--g13)" stroke-width="1.5" stroke-linejoin="round"/><polygon points="195.5,401.0 202.8,366.9 214.1,363.4 236.4,374.2 241.3,386.4 234.8,397.3 200.7,410.8" fill="var(--g10)" stroke="var(--g10)" stroke-width="1.5" stroke-linejoin="round"/><polygon points="241.3,386.4 236.4,374.2 250.6,337.2 284.9,356.7 262.6,386.8" fill="var(--g12)" stroke="var(--g12)" stroke-width="1.5" stroke-linejoin="round"/><polygon points="262.6,386.8 284.9,356.7 286.5,356.4 311.4,375.1 315.7,388.4 315.3,388.9 281.5,404.1" fill="var(--g14)" stroke="var(--g14)" stroke-width="1.5" stroke-linejoin="round"/><polygon points="315.7,388.4 311.4,375.1 320.4,361.6 353.8,350.9 362.6,359.5 355.9,388.2 347.4,393.0" fill="var(--g13)" stroke="var(--g13)" stroke-width="1.5" stroke-linejoin="round"/><polygon points="355.9,388.2 362.6,359.5 396.7,347.7 399.5,350.9 412.5,390.8 392.8,406.4" fill="var(--g11)" stroke="var(--g11)" stroke-width="1.5" stroke-linejoin="round"/><polygon points="134.8,426.0 133.5,410.2 153.9,403.8 181.7,428.9 174.8,437.0" fill="var(--g12)" stroke="var(--g12)" stroke-width="1.5" stroke-linejoin="round"/><polygon points="153.9,403.8 166.3,380.3 195.5,401.0 200.7,410.8 196.2,422.5 181.7,428.9" fill="var(--g12)" stroke="var(--g12)" stroke-width="1.5" stroke-linejoin="round"/><polygon points="248.8,430.3 234.8,397.3 241.3,386.4 262.6,386.8 281.5,404.1 279.5,427.1" fill="var(--g10)" stroke="var(--g10)" stroke-width="1.5" stroke-linejoin="round"/><polygon points="279.5,427.1 281.5,404.1 315.3,388.9 314.5,435.8 291.8,442.2" fill="var(--g10)" stroke="var(--g10)" stroke-width="1.5" stroke-linejoin="round"/><polygon points="314.5,435.8 315.3,388.9 315.7,388.4 347.4,393.0 345.5,431.8 338.3,439.5 333.4,441.5" fill="var(--g10)" stroke="var(--g10)" stroke-width="1.5" stroke-linejoin="round"/><polygon points="345.5,431.8 347.4,393.0 355.9,388.2 392.8,406.4 390.8,434.0" fill="var(--g14)" stroke="var(--g14)" stroke-width="1.5" stroke-linejoin="round"/></g><g clip-path="url(#r2)"><polygon points="134.7,171.9 135.2,140.1 168.7,140.0 169.9,176.6 168.2,179.9" fill="var(--g21)" stroke="var(--g21)" stroke-width="1.5" stroke-linejoin="round"/><polygon points="169.9,176.6 168.7,140.0 195.5,132.2 200.9,148.6" fill="var(--g20)" stroke="var(--g20)" stroke-width="1.5" stroke-linejoin="round"/><polygon points="200.9,148.6 195.5,132.2 196.5,129.4 202.3,120.7 240.1,118.8 252.3,131.6 246.8,169.0 242.5,171.9 216.2,170.2" fill="var(--g20)" stroke="var(--g20)" stroke-width="1.5" stroke-linejoin="round"/><polygon points="246.8,169.0 252.3,131.6 284.7,126.0 293.9,151.2 269.4,172.6" fill="var(--g23)" stroke="var(--g23)" stroke-width="1.5" stroke-linejoin="round"/><polygon points="284.7,126.0 286.2,123.5 332.3,122.7 339.3,128.2 305.6,156.4 293.9,151.2" fill="var(--g23)" stroke="var(--g23)" stroke-width="1.5" stroke-linejoin="round"/><polygon points="305.6,156.4 339.3,128.2 342.3,128.8 350.9,152.3 318.6,182.1" fill="var(--g24)" stroke="var(--g24)" stroke-width="1.5" stroke-linejoin="round"/><polygon points="133.3,209.9 129.4,179.5 134.7,171.9 168.2,179.9 177.7,193.4 165.7,207.0" fill="var(--g21)" stroke="var(--g21)" stroke-width="1.5" stroke-linejoin="round"/><polygon points="168.2,179.9 169.9,176.6 200.9,148.6 216.2,170.2 198.2,196.8 177.7,193.4" fill="var(--g21)" stroke="var(--g21)" stroke-width="1.5" stroke-linejoin="round"/><polygon points="198.2,196.8 216.2,170.2 242.5,171.9 244.2,192.7 228.4,218.9 207.2,221.1" fill="var(--g24)" stroke="var(--g24)" stroke-width="1.5" stroke-linejoin="round"/><polygon points="244.2,192.7 242.5,171.9 246.8,169.0 269.4,172.6 290.6,200.0 273.2,220.4" fill="var(--g22)" stroke="var(--g22)" stroke-width="1.5" stroke-linejoin="round"/><polygon points="269.4,172.6 293.9,151.2 305.6,156.4 318.6,182.1 317.9,196.5 290.6,200.0" fill="var(--g23)" stroke="var(--g23)" stroke-width="1.5" stroke-linejoin="round"/><polygon points="317.9,196.5 318.6,182.1 350.9,152.3 367.9,164.8 340.9,202.2 325.9,203.9" fill="var(--g21)" stroke="var(--g21)" stroke-width="1.5" stroke-linejoin="round"/><polygon points="131.0,238.7 131.4,214.5 133.3,209.9 165.7,207.0 172.7,236.0 164.2,246.5 140.2,245.7" fill="var(--g22)" stroke="var(--g22)" stroke-width="1.5" stroke-linejoin="round"/><polygon points="172.7,236.0 165.7,207.0 177.7,193.4 198.2,196.8 207.2,221.1 205.9,224.0" fill="var(--g20)" stroke="var(--g20)" stroke-width="1.5" stroke-linejoin="round"/><polygon points="205.9,224.0 207.2,221.1 228.4,218.9 262.0,242.5 261.5,244.0 252.8,252.8 212.7,256.7" fill="var(--g21)" stroke="var(--g21)" stroke-width="1.5" stroke-linejoin="round"/><polygon points="228.4,218.9 244.2,192.7 273.2,220.4 269.6,235.5 262.0,242.5" fill="var(--g24)" stroke="var(--g24)" stroke-width="1.5" stroke-linejoin="round"/><polygon points="269.6,235.5 273.2,220.4 290.6,200.0 317.9,196.5 325.9,203.9 325.1,226.5 311.9,246.7" fill="var(--g20)" stroke="var(--g20)" stroke-width="1.5" stroke-linejoin="round"/><polygon points="325.1,226.5 325.9,203.9 340.9,202.2 345.1,203.8 373.3,242.6 362.9,250.2" fill="var(--g22)" stroke="var(--g22)" stroke-width="1.5" stroke-linejoin="round"/><polygon points="137.8,282.7 140.2,245.7 164.2,246.5 181.1,270.7 158.8,288.5" fill="var(--g24)" stroke="var(--g24)" stroke-width="1.5" stroke-linejoin="round"/><polygon points="164.2,246.5 172.7,236.0 205.9,224.0 212.7,256.7 209.2,263.1 193.8,274.9 181.1,270.7" fill="var(--g22)" stroke="var(--g22)" stroke-width="1.5" stroke-linejoin="round"/><polygon points="209.2,263.1 212.7,256.7 252.8,252.8 249.0,276.4 236.2,286.9" fill="var(--g22)" stroke="var(--g22)" stroke-width="1.5" stroke-linejoin="round"/><polygon points="249.0,276.4 252.8,252.8 261.5,244.0 284.3,275.8 270.2,294.8" fill="var(--g21)" stroke="var(--g21)" stroke-width="1.5" stroke-linejoin="round"/><polygon points="261.5,244.0 262.0,242.5 269.6,235.5 311.9,246.7 318.3,277.3 284.3,275.8" fill="var(--g22)" stroke="var(--g22)" stroke-width="1.5" stroke-linejoin="round"/><polygon points="318.3,277.3 311.9,246.7 325.1,226.5 362.9,250.2 352.5,275.0 322.6,282.0" fill="var(--g21)" stroke="var(--g21)" stroke-width="1.5" stroke-linejoin="round"/><polygon points="123.4,317.0 124.8,293.3 137.8,282.7 158.8,288.5 165.3,315.4 134.0,323.6" fill="var(--g21)" stroke="var(--g21)" stroke-width="1.5" stroke-linejoin="round"/><polygon points="165.3,315.4 158.8,288.5 181.1,270.7 193.8,274.9 202.7,315.3 184.8,323.9" fill="var(--g21)" stroke="var(--g21)" stroke-width="1.5" stroke-linejoin="round"/><polygon points="202.7,315.3 193.8,274.9 209.2,263.1 236.2,286.9 227.9,316.6 212.6,318.2" fill="var(--g20)" stroke="var(--g20)" stroke-width="1.5" stroke-linejoin="round"/><polygon points="227.9,316.6 236.2,286.9 249.0,276.4 270.2,294.8 270.6,309.2 246.7,325.0" fill="var(--g22)" stroke="var(--g22)" stroke-width="1.5" stroke-linejoin="round"/><polygon points="270.6,309.2 270.2,294.8 284.3,275.8 318.3,277.3 322.6,282.0 316.1,315.0 304.8,319.3" fill="var(--g22)" stroke="var(--g22)" stroke-width="1.5" stroke-linejoin="round"/><polygon points="316.1,315.0 322.6,282.0 352.5,275.0 357.5,279.4 364.9,314.3 343.9,329.0 320.1,318.5" fill="var(--g20)" stroke="var(--g20)" stroke-width="1.5" stroke-linejoin="round"/><polygon points="143.5,360.9 134.0,323.6 165.3,315.4 184.8,323.9 174.8,355.5 162.5,365.2" fill="var(--g23)" stroke="var(--g23)" stroke-width="1.5" stroke-linejoin="round"/><polygon points="174.8,355.5 184.8,323.9 202.7,315.3 212.6,318.2 214.1,363.4 202.8,366.9" fill="var(--g23)" stroke="var(--g23)" stroke-width="1.5" stroke-linejoin="round"/><polygon points="214.1,363.4 212.6,318.2 227.9,316.6 246.7,325.0 250.6,337.2 236.4,374.2" fill="var(--g22)" stroke="var(--g22)" stroke-width="1.5" stroke-linejoin="round"/><polygon points="250.6,337.2 246.7,325.0 270.6,309.2 304.8,319.3 286.5,356.4 284.9,356.7" fill="var(--g23)" stroke="var(--g23)" stroke-width="1.5" stroke-linejoin="round"/><polygon points="286.5,356.4 304.8,319.3 316.1,315.0 320.1,318.5 320.4,361.6 311.4,375.1" fill="var(--g24)" stroke="var(--g24)" stroke-width="1.5" stroke-linejoin="round"/><polygon points="320.4,361.6 320.1,318.5 343.9,329.0 353.8,350.9" fill="var(--g20)" stroke="var(--g20)" stroke-width="1.5" stroke-linejoin="round"/><polygon points="166.3,380.3 162.5,365.2 174.8,355.5 202.8,366.9 195.5,401.0" fill="var(--g23)" stroke="var(--g23)" stroke-width="1.5" stroke-linejoin="round"/><polygon points="241.3,386.4 236.4,374.2 250.6,337.2 284.9,356.7 262.6,386.8" fill="var(--g22)" stroke="var(--g22)" stroke-width="1.5" stroke-linejoin="round"/><polygon points="315.7,388.4 311.4,375.1 320.4,361.6 353.8,350.9 362.6,359.5 355.9,388.2 347.4,393.0" fill="var(--g23)" stroke="var(--g23)" stroke-width="1.5" stroke-linejoin="round"/></g><g clip-path="url(#r3)"><polygon points="168.2,179.9 169.9,176.6 200.9,148.6 216.2,170.2 198.2,196.8 177.7,193.4" fill="var(--g31)" stroke="var(--g31)" stroke-width="1.5" stroke-linejoin="round"/><polygon points="198.2,196.8 216.2,170.2 242.5,171.9 244.2,192.7 228.4,218.9 207.2,221.1" fill="var(--g34)" stroke="var(--g34)" stroke-width="1.5" stroke-linejoin="round"/><polygon points="244.2,192.7 242.5,171.9 246.8,169.0 269.4,172.6 290.6,200.0 273.2,220.4" fill="var(--g32)" stroke="var(--g32)" stroke-width="1.5" stroke-linejoin="round"/><polygon points="269.4,172.6 293.9,151.2 305.6,156.4 318.6,182.1 317.9,196.5 290.6,200.0" fill="var(--g33)" stroke="var(--g33)" stroke-width="1.5" stroke-linejoin="round"/><polygon points="172.7,236.0 165.7,207.0 177.7,193.4 198.2,196.8 207.2,221.1 205.9,224.0" fill="var(--g30)" stroke="var(--g30)" stroke-width="1.5" stroke-linejoin="round"/><polygon points="205.9,224.0 207.2,221.1 228.4,218.9 262.0,242.5 261.5,244.0 252.8,252.8 212.7,256.7" fill="var(--g31)" stroke="var(--g31)" stroke-width="1.5" stroke-linejoin="round"/><polygon points="228.4,218.9 244.2,192.7 273.2,220.4 269.6,235.5 262.0,242.5" fill="var(--g34)" stroke="var(--g34)" stroke-width="1.5" stroke-linejoin="round"/><polygon points="269.6,235.5 273.2,220.4 290.6,200.0 317.9,196.5 325.9,203.9 325.1,226.5 311.9,246.7" fill="var(--g30)" stroke="var(--g30)" stroke-width="1.5" stroke-linejoin="round"/><polygon points="164.2,246.5 172.7,236.0 205.9,224.0 212.7,256.7 209.2,263.1 193.8,274.9 181.1,270.7" fill="var(--g32)" stroke="var(--g32)" stroke-width="1.5" stroke-linejoin="round"/><polygon points="209.2,263.1 212.7,256.7 252.8,252.8 249.0,276.4 236.2,286.9" fill="var(--g32)" stroke="var(--g32)" stroke-width="1.5" stroke-linejoin="round"/><polygon points="249.0,276.4 252.8,252.8 261.5,244.0 284.3,275.8 270.2,294.8" fill="var(--g31)" stroke="var(--g31)" stroke-width="1.5" stroke-linejoin="round"/><polygon points="261.5,244.0 262.0,242.5 269.6,235.5 311.9,246.7 318.3,277.3 284.3,275.8" fill="var(--g32)" stroke="var(--g32)" stroke-width="1.5" stroke-linejoin="round"/><polygon points="165.3,315.4 158.8,288.5 181.1,270.7 193.8,274.9 202.7,315.3 184.8,323.9" fill="var(--g31)" stroke="var(--g31)" stroke-width="1.5" stroke-linejoin="round"/><polygon points="202.7,315.3 193.8,274.9 209.2,263.1 236.2,286.9 227.9,316.6 212.6,318.2" fill="var(--g30)" stroke="var(--g30)" stroke-width="1.5" stroke-linejoin="round"/><polygon points="227.9,316.6 236.2,286.9 249.0,276.4 270.2,294.8 270.6,309.2 246.7,325.0" fill="var(--g32)" stroke="var(--g32)" stroke-width="1.5" stroke-linejoin="round"/><polygon points="270.6,309.2 270.2,294.8 284.3,275.8 318.3,277.3 322.6,282.0 316.1,315.0 304.8,319.3" fill="var(--g32)" stroke="var(--g32)" stroke-width="1.5" stroke-linejoin="round"/><polygon points="250.6,337.2 246.7,325.0 270.6,309.2 304.8,319.3 286.5,356.4 284.9,356.7" fill="var(--g33)" stroke="var(--g33)" stroke-width="1.5" stroke-linejoin="round"/></g></svg>
